<svg width="25" height="31" viewBox="0 0 25 31" fill="none" xmlns="http://www.w3.org/2000/svg">
<path d="M24.6146 11.2864C24.6146 15.1157 23.4978 17.9167 21.2661 19.6906C19.033 21.4646 15.6258 22.3518 11.0437 22.3518H7.84539C7.33391 22.3518 6.91896 22.7667 6.91896 23.2782V30.0736C6.91896 30.585 6.50399 31 5.99251 31H0.92643C0.414951 31 0 30.585 0 30.0736V26.2713C0.0491634 18.6212 1.03197 11.8339 15.795 11.8339C8.27703 11.8339 1.87361 10.8489 0.346842 0.208831C0.506059 0.080284 0.705872 0 0.92643 0H10.9544C15.7142 0 19.1814 0.924631 21.3545 2.77209C23.5272 4.61955 24.6146 7.45795 24.6146 11.2864Z" fill="white"/>
</svg>
